<svg xmlns="http://www.w3.org/2000/svg" viewBox="0 0 101 101" id="Search"><path d="M63.3 59.9c3.8-4.6 6.2-10.5 6.2-17 0-14.6-11.9-26.5-26.5-26.5S16.5 28.3 16.5 42.9 28.4 69.4 43 69.4c6.4 0 12.4-2.3 17-6.2l20.6 20.6c.5.5 1.1.7 1.7.7.6 0 1.2-.2 1.7-.7.9-.9.9-2.5 0-3.4L63.3 59.9zm-20.4 4.7c-12 0-21.7-9.7-21.7-21.7s9.7-21.7 21.7-21.7 21.7 9.7 21.7 21.7-9.7 21.7-21.7 21.7z" fill="#2ea7f9" class="color000000 svgShape"></path>
<path fill='#fff852' d='M1397.5 154.8c47.2-10.6 93.6-25.3 138.6-43.8c21.7-8.9 43-18.8 63.9-29.5V0H643.4c62.9 41.7 129.7 78.2 202.1 107.4C1020.4 178.1 1214.2 196.1 1397.5 154.8z'/>
</svg>